PathFileType	4	(X/Y/Z)	C:\Users\WrightLab\Desktop\Jo\P1_boxCal10.trc
DataRate	CameraRate	NumFrames	NumMarkers	Units	OrigDataRate	OrigDataStartFrame	OrigNumFrames
100.00	100.00	       17	19	mm	100.00	235	       625
Frame#	Time	Headset_Front			Headset_Back			Headset_Left			Headset_Right			Left_Shoulder			Right_Shoulder			Sternum			C7			Left Elbow			Right Elbow			Left Wrist			Right Wrist			Left ASIS			Right ASIS			S2			Left Knee			Right Knee			Left Ankle			Right Ankle			
		X1	Y1	Z1	X2	Y2	Z2	X3	Y3	Z3	X4	Y4	Z4	X5	Y5	Z5	X6	Y6	Z6	X7	Y7	Z7	X8	Y8	Z8	X9	Y9	Z9	X10	Y10	Z10	X11	Y11	Z11	X12	Y12	Z12	X13	Y13	Z13	X14	Y14	Z14	X15	Y15	Z15	X16	Y16	Z16	X17	Y17	Z17	X18	Y18	Z18	X19	Y19	Z19	

235	2.340	-663.68811	1394.78101	-215.84488	-685.49811	1466.92419	-516.20801	-568.14594	1412.68665	-401.71066	-778.54578	1420.27283	-313.77029	-498.65198	1225.11047	-447.22180	-883.07874	1229.18921	-397.33386	-694.84418	1145.04626	-278.46121	-693.39478	1229.45166	-535.25403	-434.27542	899.74194	-474.97083	-962.26947	957.92535	-455.97501	-367.54926	728.21320	-377.00513	-1038.88147	732.00684	-410.50366	-595.40656	856.84851	-253.91209	-794.18976	861.28717	-246.31540	-699.90729	842.59692	-572.14435	-543.81958	403.18134	-442.19159	-879.05328	457.39822	-246.40269	-552.92944	137.77547	-689.72894	-917.87036	83.71752	-208.01137	
236	2.350	-663.66107	1396.85889	-205.60754	-687.97131	1467.88989	-506.17502	-569.31427	1413.99329	-392.94556	-780.82996	1422.74329	-303.78601	-500.79980	1226.52881	-439.89453	-884.33569	1231.25098	-385.18729	-695.70740	1146.55103	-268.03522	-696.39636	1230.87280	-524.72937	-437.89813	901.28564	-469.33752	-964.23291	959.36456	-441.87497	-368.96210	728.93878	-375.88235	-1040.70837	734.36633	-397.20496	-596.19452	858.38751	-244.27179	-795.17737	863.19525	-234.97102	-701.97137	843.18219	-561.29279	-544.37292	402.37863	-422.19070	-879.94214	458.09106	-238.66283	-555.98187	144.41728	-677.26068	-917.72272	83.23848	-205.19704	
237	2.360	-662.62384	1397.75610	-195.19394	-689.90826	1469.02808	-496.22052	-570.39545	1415.07642	-383.91159	-781.32074	1424.41479	-292.63174	-502.45615	1228.27039	-431.12604	-885.34302	1233.42786	-373.20328	-696.46680	1147.90930	-258.70755	-699.38898	1232.29871	-515.02985	-440.93030	903.33704	-464.16312	-966.50024	961.68854	-427.92194	-370.36026	729.53265	-373.82971	-1043.29260	736.43951	-383.48517	-597.36987	859.45007	-234.83897	-796.24475	865.38080	-223.66702	-704.79620	844.09595	-550.94763	-543.81042	401.38681	-402.52548	-881.07507	459.38721	-231.13478	-559.29901	153.13057	-664.65881	-917.75336	82.49871	-203.19328	
238	2.370	-662.15332	1399.66272	-186.29565	-692.03015	1470.54846	-485.60291	-571.88702	1417.17029	-375.47876	-779.30066	1424.92041	-281.08609	-504.35916	1230.26746	-423.38654	-886.06311	1234.81970	-359.88446	-695.80591	1150.08887	-248.27959	-702.36560	1234.19885	-504.57700	-443.34592	904.73413	-458.63147	-968.45581	963.72180	-414.56339	-371.22464	731.13934	-372.27097	-1044.69019	738.21381	-368.69492	-599.17981	861.21765	-226.29469	-797.87671	867.34564	-214.19562	-706.74811	845.21375	-542.10986	-542.29254	399.70020	-381.69382	-881.52563	460.41458	-221.35675	-563.49323	161.61613	-650.65503	-917.45483	81.88305	-201.96570	
239	2.380	-660.37097	1401.66467	-176.55467	-693.84729	1472.10217	-475.29129	-573.17523	1418.27063	-365.93988	-779.38672	1426.62061	-269.95981	-506.12259	1232.09656	-415.15906	-887.25739	1236.84851	-347.08881	-694.62604	1151.19543	-237.80519	-704.94836	1236.15991	-494.58917	-446.58719	907.21393	-452.97461	-970.14813	966.61450	-401.19916	-371.75766	732.31488	-370.41202	-1047.68469	741.24805	-354.33481	-599.79199	862.91132	-217.20789	-799.02740	869.11700	-204.15370	-708.55518	846.92719	-532.30933	-539.68579	400.31863	-362.36932	-883.57043	460.66110	-212.56619	-567.12671	171.20168	-634.73157	-916.70294	80.18945	-200.18687	
240	2.390	-660.54968	1402.80554	-165.32265	-695.69696	1473.94312	-465.42072	-572.70508	1419.98682	-357.26843	-779.08917	1428.60889	-259.12228	-507.54831	1234.08972	-408.30426	-887.47095	1238.86890	-334.03641	-694.15784	1151.09692	-229.42012	-707.67029	1238.28503	-484.22421	-448.90829	909.61151	-448.44977	-972.15448	967.84991	-387.08295	-372.74957	733.70789	-367.95398	-1049.31726	744.61633	-338.47314	-600.25952	864.08594	-208.91400	-799.51453	870.64868	-193.22736	-710.07465	847.55457	-523.23895	-536.88812	400.75659	-342.84537	-885.90112	459.84375	-206.04904	-570.53436	180.60635	-616.60370	-915.22815	79.59468	-200.07037	
241	2.400	-658.20050	1403.84875	-157.22084	-697.39850	1475.86584	-454.90796	-573.96179	1421.77734	-349.03494	-777.32813	1429.61694	-247.60780	-508.63055	1235.74182	-400.96695	-887.43188	1240.48608	-321.16794	-692.80054	1153.82556	-218.79868	-709.86157	1239.89673	-473.88666	-450.22394	911.61316	-444.09354	-974.35382	970.70837	-373.60605	-373.49072	735.91565	-366.11133	-1050.66772	746.98486	-325.04343	-600.19366	865.16504	-201.07303	-798.95966	871.66064	-183.46889	-712.24969	849.14960	-513.37933	-534.43225	403.03635	-324.52765	-887.82086	459.09409	-199.49077	-574.37689	189.14586	-598.73627	-913.90576	78.82043	-199.33081	
242	2.410	-656.52106	1405.41638	-147.20467	-698.67310	1477.34351	-444.91074	-573.93250	1423.51624	-340.23770	-778.15619	1431.26001	-237.01801	-509.53040	1237.62720	-393.99863	-887.11365	1242.37366	-308.39932				-712.09332	1242.20996	-463.94547	-452.27402	913.88239	-439.85468	-975.75146	972.56921	-358.89859	-373.84351	736.90326	-363.35953	-1051.99255	748.12677	-307.40717	-601.24103	865.20367	-192.24236	-799.75385	873.85345	-175.40071	-714.34418	850.36932	-505.09631	-531.84705	405.64090	-307.29517	-890.68524	458.55109	-195.25160	-579.36530	196.41138	-581.53546	-913.15613	77.72597	-197.27115	
243	2.420	-654.86597	1406.85046	-137.76372	-700.18256	1478.81750	-434.74463	-574.51648	1425.55115	-329.91653	-776.57349	1432.38623	-226.05583	-510.96417	1239.09595	-387.12686	-886.67761	1243.91614	-295.70148	-689.88275	1154.20508	-202.27095	-714.05988	1244.18213	-454.80292	-453.79977	915.96326	-435.35797	-977.32916	975.04730	-344.99017	-374.91287	738.59497	-361.37936	-1053.25037	750.40137	-290.74792	-600.40070	866.44489	-184.85922	-798.39368	875.53851	-166.52371	-716.14581	852.39032	-496.44012	-529.85400	408.78912	-289.26154	-893.59058	457.18033	-190.53256	-585.06378	202.77303	-564.40643	-912.58484	78.15678	-196.82832	
244	2.430	-652.48773	1408.45886	-128.97612	-701.05927	1480.78516	-424.67529	-574.20764	1426.87488	-320.53922	-776.31250	1434.14038	-215.87651	-511.54849	1240.95850	-380.62024	-885.70178	1245.63452	-283.23932				-715.77484	1246.41516	-444.80814	-455.36136	917.51056	-430.29718	-979.25629	977.42743	-330.96234	-375.41220	740.18121	-358.95721	-1053.80957	752.80585	-275.13840	-598.37708	868.17981	-177.80325	-797.14038	877.47284	-155.55916	-718.21948	854.81061	-487.96545	-528.05927	412.38776	-272.36890	-896.40662	455.41760	-186.86671	-590.70038	206.86880	-545.48718	-912.39862	78.56766	-196.08606	
245	2.440	-649.65479	1409.63208	-119.33502	-701.82489	1483.01160	-414.42313	-573.74982	1428.99207	-313.34390	-774.60114	1435.03381	-204.48996	-511.97083	1242.30408	-373.41046	-884.85913	1247.71558	-270.85968	-684.71106	1156.73511	-182.93721	-717.37671	1248.81946	-434.70950	-456.18436	918.83856	-425.37311	-980.35095	979.33191	-316.70834	-375.36533	741.51172	-355.99634	-1054.62463	754.57928	-258.11325	-595.67596	869.13940	-170.84003	-796.33282	877.49835	-151.28421	-719.65363	857.16687	-479.50961	-526.49963	416.59772	-254.52939	-899.28369	453.13303	-184.33989	-595.03595	211.04793	-526.32471	-911.78027	78.44407	-196.05028	
246	2.450	-648.45770	1409.87671	-108.97444	-702.56793	1485.54480	-404.13818	-574.03888	1430.77795	-303.88474	-772.89996	1436.67236	-193.77341	-512.19940	1244.06812	-366.86505	-883.24695	1248.88110	-258.72003	-682.20251	1156.39600	-179.94948	-718.55914	1250.99133	-425.44748	-457.36938	920.65228	-421.03564	-981.11945	981.38098	-301.88287	-375.51968	743.66364	-353.83310	-1054.76318	757.38477	-240.96587	-593.23706	870.15851	-165.11865	-793.51050	879.59363	-141.76337	-721.79413	860.31403	-471.42813	-524.34668	421.36313	-237.69810	-900.84686	450.83975	-181.86290	-598.95197	213.63368	-505.96317	-910.64844	76.97035	-199.36812	
247	2.460	-645.61420	1411.21570	-100.21210	-702.66284	1487.70105	-393.68295	-572.86609	1432.92212	-294.82410	-771.45740	1438.34277	-182.57027	-512.45892	1245.63171	-360.81122	-881.92444	1250.75720	-246.86090				-719.67743	1253.43103	-415.63309	-458.75580	922.76147	-416.73950	-982.06714	982.90839	-287.89053	-375.74039	744.86719	-350.60016	-1055.36243	760.35266	-225.54013	-590.55841	871.42871	-158.91211	-791.09241	880.44025	-133.78462	-723.37683	863.16492	-463.02289	-521.89648	426.86133	-220.54683	-902.26563	449.22070	-181.70935	-602.33698	214.14224	-483.65198	-910.03186	78.41996	-197.55533	
248	2.470	-642.87439	1412.92395	-91.41770	-702.55499	1490.04443	-383.16702	-571.89996	1435.11560	-285.80035	-769.76398	1440.09229	-172.32040	-512.93182	1247.58838	-353.80698	-880.74847	1252.61731	-234.99149	-676.33356	1160.22754	-157.92000	-720.76129	1255.79248	-405.48978	-460.04489	924.39850	-412.84747	-981.71576	985.15155	-272.04904	-376.15662	746.76636	-348.23685	-1055.09705	762.51276	-208.21155	-587.33215	872.89612	-151.77171	-788.75763	880.66931	-127.83367	-724.96289	866.10980	-454.89044	-519.00653	431.65497	-203.71028	-900.22705	447.43372	-180.90469	-606.28271	212.66809	-461.69315	-908.86816	78.84484	-198.59669	
249	2.480	-639.80725	1414.17126	-81.34391	-702.80518	1492.48889	-373.06454	-571.30133	1436.80432	-276.73605	-767.79950	1440.92517	-162.08525	-513.14441	1249.42432	-347.50427	-878.74561	1254.28052	-223.29947	-674.23547	1161.15381	-150.64041	-721.11255	1257.73511	-396.24576	-460.79910	926.53815	-408.35223	-981.49805	987.43018	-257.53333	-376.63834	748.73853	-345.36649	-1054.19727	764.90973	-190.66853	-584.37225	873.93140	-145.14607	-785.27826	881.61023	-117.91225	-726.81989	868.69989	-446.60718	-515.86908	437.32813	-189.24135	-897.96295	445.08261	-179.35550	-609.11255	209.70476	-438.95746	-908.14270	79.76279	-198.61655	
250	2.490	-638.00580	1413.38794	-77.29382	-702.16083	1494.02271	-362.40228	-570.16095	1438.63123	-269.33023	-764.55756	1442.11292	-150.47026	-513.51581	1250.85742	-340.38647	-877.33795	1255.93469	-211.26228	-670.26544	1163.20544	-139.64018	-722.03632	1259.50586	-386.52863	-462.07672	928.51898	-405.09518	-981.19421	989.29474	-242.76791	-376.40378	749.95721	-342.34085	-1053.20410	768.16754	-173.95245	-581.33917	875.37982	-138.78870	-781.72424	883.08521	-109.05268	-728.52136	871.89819	-439.14709	-512.76422	442.60941	-174.36909	-895.83032	443.86069	-176.14406	-611.77313	204.21384	-415.32880	-907.54761	80.20959	-198.11935	
251	2.500	-634.74921	1414.53687	-66.14508	-702.40112	1496.47314	-352.87555	-568.44043	1440.01453	-260.71170	-762.29938	1442.84351	-140.38383	-513.18292	1252.53577	-334.07184	-875.69720	1257.85193	-200.27306	-668.02753	1164.09094	-131.04832	-722.43298	1261.23694	-376.91226	-463.47574	930.91687	-400.58942	-980.47522	991.19147	-228.27171	-377.15231	752.03113	-339.33560	-1051.89441	770.97522	-157.00223	-577.87506	876.81396	-132.65070	-777.92609	883.04401	-100.10069	-729.46240	874.20361	-430.69397	-510.14090	448.59198	-161.72717	-893.09515	443.58585	-173.39151	-613.66211	198.24080	-390.25671	-906.54999	80.63422	-198.35342	
